<svg xmlns:dc="http://purl.org/dc/elements/1.1/" xmlns:cc="http://creativecommons.org/ns#" xmlns:rdf="http://www.w3.org/1999/02/22-rdf-syntax-ns#" xmlns:svg="http://www.w3.org/2000/svg" xmlns="http://www.w3.org/2000/svg" xmlns:sodipodi="http://sodipodi.sourceforge.net/DTD/sodipodi-0.dtd" xmlns:inkscape="http://www.inkscape.org/namespaces/inkscape" version="1.1" x="0px" y="0px" viewBox="0 0 100 125"><g transform="translate(0,-952.36218)"><path style="text-indent:0;text-transform:none;direction:ltr;block-progression:tb;baseline-shift:baseline;color:#000000;enable-background:accumulate;" d="m 91.834592,961.34871 c -1.0317,0.041 -2.0409,0.4995 -2.75,1.25 -10.567698,11.0566 -34.400798,36.5888 -46.374998,49.18729 l -14.0625,-12.40609 c -1.5707,-1.3911 -4.2657,-1.2275 -5.6566,0.3434 -1.3909,1.57089 -1.227,4.26589 0.3441,5.65659 l 17,14.9999 c 1.5368,1.361 4.154,1.2434 5.5625,-0.25 11.1694,-11.6857 37.946998,-40.43549 48.999998,-51.99989 1.109,-1.1432 1.43,-2.9804 0.7745,-4.4319 -0.6555,-1.4515 -2.2461,-2.4254 -3.837,-2.3493 z m -87.8436977,10.0312 0,67.99989 c 2e-4,2.0943 1.9057,3.9998 4,4 l 69.9999997,0 c 2.0943,-2e-4 3.999798,-1.9057 3.999998,-4 l 0,-34.9999 c 0.03,-2.1133 -1.886498,-4.057 -3.999998,-4.057 -2.1135,0 -4.0299,1.9437 -4,4.057 l 0,30.9999 -62,0 0,-59.99989 54,0 c 2.1132,0.03 4.057,-1.8865 4.057,-4 0,-2.1135 -1.9438,-4.0299 -4.057,-4 l -57.9999997,0 c -2.4198,0.044 -3.9556,2.3142 -4,4 z" fill="#000000" fill-opacity="1" marker="none" visibility="visible" display="inline" overflow="visible"/></g></svg>