<svg xmlns:dc="http://purl.org/dc/elements/1.1/" xmlns:cc="http://creativecommons.org/ns#" xmlns:rdf="http://www.w3.org/1999/02/22-rdf-syntax-ns#" xmlns:svg="http://www.w3.org/2000/svg" xmlns="http://www.w3.org/2000/svg" xmlns:sodipodi="http://sodipodi.sourceforge.net/DTD/sodipodi-0.dtd" xmlns:inkscape="http://www.inkscape.org/namespaces/inkscape" version="1.1" x="0px" y="0px" viewBox="24 10 52 79"><g transform="translate(0,-952.36218)"><path style="color:#000000;enable-background:accumulate;" d="m 50,962.37766 c -14.26964,0 -26,11.1275 -26,27 0,5.7475 1.65705,10.1336 4.03125,14.53124 L 48.25,1041.3152 a 2.0001998,2.0001998 0 0 0 3.5,0 l 20.21875,-37.4063 C 74.34301,999.51116 76,995.12506 76,989.37766 c 0,-15.8725 -11.73037,-27 -26,-27 z m 0,14 c 6.62742,0 12,5.3726 12,12 0,6.6273 -5.37258,12.00004 -12,12.00004 -6.62742,0 -12,-5.37274 -12,-12.00004 0,-6.6274 5.37258,-12 12,-12 z" fill="#000000" stroke="none" marker="none" visibility="visible" display="inline" overflow="visible"/></g></svg>