<svg xmlns:dc="http://purl.org/dc/elements/1.1/" xmlns:cc="http://creativecommons.org/ns#" xmlns:rdf="http://www.w3.org/1999/02/22-rdf-syntax-ns#" xmlns:svg="http://www.w3.org/2000/svg" xmlns="http://www.w3.org/2000/svg" xmlns:sodipodi="http://sodipodi.sourceforge.net/DTD/sodipodi-0.dtd" xmlns:inkscape="http://www.inkscape.org/namespaces/inkscape" version="1.1" x="0px" y="0px" viewBox="0 0 100 125"><g transform="translate(0,-952.36218)"><path style="text-indent:0;text-transform:none;direction:ltr;block-progression:tb;baseline-shift:baseline;color:#000000;enable-background:accumulate;" d="m 69.295634,968.97666 a 2.0002002,2.0002002 0 0 0 -1.979375,0.5049 l -48.087511,48.09914 a 2.0002002,2.0002002 0 0 0 -0.565006,1.1427 l -2.099192,14.8373 a 2.0002002,2.0002002 0 0 0 2.24379,2.2512 l 14.862412,-2.0998 a 2.0002002,2.0002002 0 0 0 1.123947,-0.5725 l 48.087512,-48.09912 a 2.0002002,2.0002002 0 0 0 -0.02078,-2.82022 l -12.70285,-12.7212 a 2.0002002,2.0002002 0 0 0 -0.862947,-0.5224 z m -0.565317,4.76608 9.900118,9.89967 -2.829631,2.83291 -9.900117,-9.89966 2.82963,-2.83292 z m -5.65926,5.66584 9.900117,9.89966 -40.523694,40.51726 -11.542455,1.663 1.634263,-11.5325 40.531769,-40.54742 z" fill="#000000" fill-opacity="1" stroke="none" marker="none" visibility="visible" display="inline" overflow="visible"/></g></svg>