<svg xmlns="http://www.w3.org/2000/svg" xmlns:xlink="http://www.w3.org/1999/xlink" version="1.1" x="0px" y="0px" viewBox="0 0 26 26" style="enable-background:new 0 0 26 26;" xml:space="preserve"><g><path d="M13,0C5.82,0,0,5.82,0,13s5.82,13,13,13c7.18,0,13-5.82,13-13S20.18,0,13,0z M11.248,20.07   c-1.171,1.172-3.155,1.087-5.303-1.06C3.798,16.862,4.178,13,4.178,13s3.862-0.38,6.01,1.768   C12.335,16.915,12.42,18.899,11.248,20.07z M10,9.5C10,6.463,13,4,13,4s3,2.463,3,5.5S14.656,14,13,14C11.344,14,10,12.537,10,9.5z    M20.055,19.01c-2.148,2.147-4.132,2.232-5.303,1.06c-1.172-1.171-1.087-3.155,1.06-5.303C17.96,12.62,21.822,13,21.822,13   S22.202,16.862,20.055,19.01z"/></g></svg>