<svg xmlns="http://www.w3.org/2000/svg" viewBox="3 5 26 24" x="0px" y="0px"><title>Artboard 10</title><g><path d="M24.29,23.44h1A9.93,9.93,0,0,1,16,29C9.82,29,5.83,24.8,5,17.51l-.27-.07c-.65-.16-1.62-.41-1.62-1.36V14.24A.92.92,0,0,1,4,13.32h11v5.06a2.31,2.31,0,0,0,4.61,0,.46.46,0,0,1,.46-.46.47.47,0,0,1,.46.46v1.38A3.68,3.68,0,0,0,24.29,23.44Zm4.6-9.2v1.84c0,1-1,1.2-1.62,1.36l-.27.07a18.76,18.76,0,0,1-.91,4.09h-1.8a1.84,1.84,0,0,1-1.84-1.84V18.38a2.3,2.3,0,1,0-4.6,0,.47.47,0,0,1-.46.46.46.46,0,0,1-.46-.46V13.32h.53l8-8a.92.92,0,0,1,1.3,0l1.95,2a.94.94,0,0,1,.27.66.9.9,0,0,1-.28.65L23.8,13.32H28A.92.92,0,0,1,28.89,14.24Zm-8.82-.92h1.08L26.77,7.9l-.64-.64Z"/></g></svg>